<svg width="696" height="510" viewBox="0 0 696 510" fill="none" xmlns="http://www.w3.org/2000/svg">
<g clip-path="url(#clip0_922_543)">
<g opacity="0.06">
<path d="M244.986 67.9852C230.48 75.4855 216.915 84.6196 204.291 94.9914C202.682 96.3281 201.741 99.1253 201.741 101.13C201.741 103.259 202.682 105.809 204.291 107.269C205.949 108.779 208.103 109.918 210.43 109.819C212.856 109.72 214.687 108.804 216.569 107.269C218.4 105.759 220.257 104.274 222.138 102.814C221.544 103.259 220.975 103.729 220.381 104.175C230.851 96.1301 242.015 89.0258 253.749 82.9859C257.783 80.9066 259.293 74.9162 256.868 71.1289C254.194 66.995 249.318 65.7821 244.986 67.9852Z" fill="#536DFB"/>
<path d="M501.607 103.482C490.369 93.0604 478.066 83.6788 464.972 75.6834C451.728 67.6137 437.594 60.9797 423.014 55.7814C408.088 50.4594 392.691 46.9939 376.997 44.9146C360.734 42.761 344.223 42.4145 327.911 43.9244C310.212 45.5582 292.711 49.1227 275.879 54.8656C273.898 55.5339 271.943 56.227 270.012 56.9696C267.858 57.7865 266.027 58.9004 264.838 60.9549C263.749 62.8115 263.279 65.5591 263.972 67.6384C264.64 69.7425 265.952 71.7723 267.957 72.8119C269.913 73.8516 272.487 74.4952 274.641 73.6783C289.765 68.0345 305.509 64.0987 321.5 61.9451C320.732 62.0441 319.965 62.1431 319.197 62.2669C334.52 60.2371 350.016 59.8163 365.413 61.0292C369.423 61.351 373.433 61.7718 377.418 62.3164C376.651 62.2174 375.883 62.1184 375.116 61.9946C389.82 63.9996 404.3 67.4899 418.262 72.4406C422.148 73.8268 426.009 75.3121 429.797 76.921C429.104 76.624 428.411 76.327 427.717 76.0547C441.109 81.6985 453.907 88.679 465.888 96.8972C469.279 99.2241 472.621 101.65 475.888 104.175C475.294 103.729 474.725 103.259 474.13 102.813C479.403 106.898 484.478 111.205 489.354 115.735C492.671 118.829 498.364 119.275 501.607 115.735C504.701 112.393 505.172 106.799 501.607 103.482Z" fill="#536DFB"/>
<path d="M572.105 290.273C573.739 274.133 573.591 257.796 571.635 241.706C569.704 225.839 566.313 210.219 561.09 195.095C558.119 186.481 554.604 178.04 550.644 169.846C549.753 167.99 547.401 166.406 545.47 165.861C543.391 165.292 540.643 165.539 538.787 166.727C536.93 167.915 535.297 169.698 534.802 171.901C534.257 174.277 534.628 176.381 535.668 178.584C537.252 181.852 538.737 185.169 540.148 188.511C539.851 187.817 539.554 187.124 539.282 186.431C544.975 199.996 549.307 214.131 552.154 228.587C552.971 232.795 553.689 237.052 554.258 241.31C554.159 240.543 554.06 239.775 553.936 239.008C556.213 255.989 556.486 273.217 554.753 290.273C554.555 292.352 555.867 294.976 557.303 296.412C558.813 297.922 561.263 299.036 563.441 298.961C565.694 298.862 568.021 298.12 569.58 296.412C571.214 294.629 571.858 292.674 572.105 290.273Z" fill="#536DFB"/>
<path d="M487.844 444.587C502.795 432.829 515.939 419.165 527.499 404.066C539.158 388.867 548.54 372.208 555.966 354.583C560.05 344.855 563.442 334.854 566.09 324.631C567.229 320.25 564.654 315.027 560.026 313.962C555.496 312.923 550.57 315.324 549.357 320.027C546.708 330.25 543.342 340.251 539.232 349.979C539.53 349.286 539.827 348.593 540.099 347.9C534.455 361.267 527.474 374.039 519.256 385.995C516.954 389.362 514.553 392.654 512.053 395.872C512.499 395.278 512.969 394.709 513.414 394.115C504.874 405.155 495.295 415.403 484.799 424.611C481.779 427.26 478.71 429.809 475.541 432.285C473.908 433.572 472.992 436.443 472.992 438.424C472.992 440.552 473.932 443.102 475.541 444.563C477.2 446.073 479.353 447.211 481.68 447.112C482.448 447.013 483.215 446.914 483.982 446.79C485.492 446.394 486.755 445.652 487.844 444.587Z" fill="#536DFB"/>
<path d="M214.316 449.141C224.515 456.741 235.357 463.474 246.744 469.192C258.799 475.232 271.398 480.282 284.344 484.118C297.587 488.029 311.202 490.579 324.916 492.064C338.976 493.574 353.209 493.698 367.294 492.46C382.344 491.148 397.295 488.45 411.776 484.168C413.459 483.673 415.143 483.153 416.826 482.608C418.955 481.915 420.861 480.579 421.999 478.623C423.088 476.766 423.559 474.019 422.866 471.94C421.479 467.632 416.826 464.39 412.197 465.875C399.969 469.811 387.418 472.633 374.695 474.341C375.462 474.242 376.23 474.143 376.997 474.019C361.823 476.024 346.476 476.469 331.228 475.281C327.143 474.959 323.059 474.539 318.999 473.994C319.767 474.093 320.534 474.192 321.301 474.316C306.524 472.311 291.993 468.821 277.933 463.82C273.973 462.409 270.037 460.875 266.175 459.241C266.868 459.538 267.561 459.835 268.254 460.107C255.754 454.81 243.748 448.349 232.436 440.799C229.243 438.671 226.124 436.468 223.054 434.165C221.371 432.903 218.302 432.755 216.371 433.299C214.366 433.844 212.187 435.403 211.197 437.284C210.133 439.289 209.613 441.74 210.331 443.968C210.628 444.661 210.925 445.354 211.197 446.047C211.965 447.334 213.004 448.374 214.316 449.141Z" fill="#536DFB"/>
<path d="M123 268.144C123.025 287.427 125.475 306.809 130.377 325.473C135.105 343.518 142.184 361.044 151.219 377.332C156.096 386.12 161.566 394.561 167.606 402.581C169.017 404.462 170.428 405.922 172.78 406.566C174.859 407.135 177.607 406.888 179.463 405.7C181.32 404.511 182.953 402.729 183.448 400.526C183.943 398.397 183.943 395.674 182.582 393.843C174.265 382.778 167.012 370.97 160.947 358.519C159.215 354.979 157.606 351.415 156.071 347.801C156.368 348.494 156.665 349.187 156.937 349.88C151.219 336.29 146.887 322.107 144.041 307.626C143.224 303.393 142.506 299.135 141.937 294.878C142.036 295.645 142.135 296.412 142.258 297.18C140.971 287.55 140.328 277.847 140.328 268.144C140.328 263.614 136.342 259.257 131.664 259.48C126.961 259.678 123 263.292 123 268.144Z" fill="#536DFB"/>
<path d="M314.643 460.404C325.708 462.261 336.896 463.301 348.11 463.301C352.64 463.301 356.996 459.315 356.774 454.637C356.551 449.934 352.961 445.973 348.11 445.973C339.718 445.973 331.352 445.404 323.059 444.315C323.826 444.414 324.594 444.513 325.361 444.636C323.307 444.364 321.277 444.042 319.247 443.72C316.871 443.324 314.717 443.349 312.564 444.587C310.757 445.651 309.049 447.706 308.578 449.76C308.083 451.988 308.182 454.464 309.445 456.444C310.608 458.226 312.44 460.058 314.643 460.404Z" fill="#536DFB"/>
<path d="M157.036 228.265C154.487 240.79 153.076 253.563 152.952 266.336C152.853 276.435 153.67 286.485 155.056 296.486C157.606 314.828 163.027 332.552 170.676 349.409C178.151 365.92 188.102 381.217 199.835 395.005C211.47 408.694 225.134 420.675 240.06 430.675C255.135 440.775 271.769 448.696 289.047 454.216C291.102 454.884 293.181 455.503 295.285 456.072C299.642 457.31 304.915 454.562 305.954 450.008C306.994 445.404 304.568 440.651 299.89 439.339C292.414 437.235 285.062 434.661 277.908 431.641C278.601 431.938 279.295 432.235 279.988 432.507C268.452 427.631 257.437 421.591 247.115 414.511C244.194 412.506 241.322 410.402 238.525 408.248C239.119 408.694 239.689 409.164 240.283 409.61C230.456 402.01 221.396 393.446 213.277 384.064C210.95 381.391 208.722 378.643 206.544 375.846C206.989 376.44 207.459 377.009 207.905 377.603C200.281 367.727 193.647 357.083 188.152 345.869C186.567 342.651 185.082 339.384 183.696 336.092C183.993 336.785 184.29 337.478 184.562 338.171C179.636 326.462 175.923 314.284 173.497 301.832C172.804 298.268 172.21 294.654 171.715 291.065C171.814 291.832 171.913 292.599 172.037 293.367C170.379 280.99 169.933 268.44 170.75 255.989C171.022 251.706 171.468 247.424 172.012 243.142C171.913 243.909 171.814 244.676 171.69 245.444C172.26 241.236 172.978 237.027 173.819 232.869C174.29 230.567 174.166 228.265 172.953 226.185C171.888 224.378 169.834 222.67 167.779 222.2C165.552 221.705 163.076 221.804 161.096 223.066C159.19 224.255 157.482 226.062 157.036 228.265Z" fill="#536DFB"/>
<path d="M388.013 77.0688C368.185 73.034 347.788 71.8953 327.663 74.0736C310.781 75.9054 294.221 79.6927 278.379 85.8316C263.007 91.7972 248.377 99.4956 234.986 109.125C221.718 118.68 209.564 129.67 199.043 142.22C188.473 154.82 179.339 168.633 172.235 183.485C171.393 185.267 170.552 187.074 169.76 188.881C168.794 191.084 168.225 193.139 168.893 195.565C169.438 197.57 170.997 199.748 172.879 200.738C174.884 201.802 177.334 202.322 179.562 201.604C181.567 200.961 183.845 199.649 184.736 197.619C189.488 186.802 195.256 176.43 201.989 166.702C203.895 163.929 205.9 161.206 207.955 158.533C207.509 159.127 207.039 159.697 206.593 160.291C214.217 150.463 222.782 141.379 232.188 133.235C234.862 130.933 237.585 128.68 240.382 126.527C239.788 126.972 239.218 127.442 238.624 127.888C248.526 120.264 259.17 113.605 270.383 108.11C273.601 106.526 276.844 105.065 280.136 103.654C279.443 103.951 278.75 104.248 278.057 104.521C289.716 99.6194 301.87 95.9064 314.271 93.4557C317.886 92.7379 321.524 92.1438 325.188 91.6487C324.42 91.7477 323.653 91.8468 322.886 91.9705C335.337 90.2873 347.961 89.8665 360.487 90.6833C364.695 90.9556 368.903 91.3764 373.111 91.9458C372.344 91.8468 371.576 91.7477 370.809 91.624C375.017 92.1933 379.225 92.9112 383.384 93.7528C385.686 94.2231 387.988 94.0993 390.067 92.8864C391.874 91.822 393.582 89.7675 394.052 87.7129C394.548 85.4851 394.449 83.0097 393.186 81.0294C391.998 79.2224 390.216 77.5144 388.013 77.0688Z" fill="#536DFB"/>
<path d="M543.292 268.144C543.267 253.465 541.609 238.736 538.366 224.453C535.197 210.517 530.37 197.002 524.256 184.08C518.538 172 511.508 160.539 503.34 149.945C494.775 138.831 485.294 128.583 474.576 119.523C463.907 110.512 452.347 102.492 440.02 95.9325C438.559 95.1404 437.074 94.3978 435.589 93.6551C433.485 92.6155 431.232 92.1452 428.905 92.7888C426.9 93.3333 424.722 94.8928 423.732 96.7741C421.652 100.71 422.519 106.478 426.851 108.631C437.718 114.052 448.065 120.538 457.669 127.964C457.075 127.518 456.506 127.048 455.912 126.602C465.739 134.202 474.823 142.766 482.942 152.148C485.245 154.797 487.472 157.544 489.626 160.317C489.18 159.723 488.71 159.153 488.265 158.559C495.889 168.436 502.547 179.08 508.067 190.269C509.652 193.462 511.112 196.705 512.498 199.997C512.201 199.304 511.904 198.611 511.632 197.917C516.583 209.651 520.345 221.904 522.771 234.404C523.489 238.018 524.083 241.632 524.578 245.271C524.479 244.504 524.38 243.736 524.256 242.969C525.37 251.311 525.94 259.727 525.94 268.144C525.94 272.673 529.925 277.03 534.603 276.807C539.307 276.609 543.292 272.995 543.292 268.144Z" fill="#536DFB"/>
<path d="M348.11 407.53C425.091 407.53 487.497 345.124 487.497 268.143C487.497 191.161 425.091 128.755 348.11 128.755C271.128 128.755 208.722 191.161 208.722 268.143C208.722 345.124 271.128 407.53 348.11 407.53Z" fill="#536DFB"/>
</g>
<path d="M497.151 510.134H361.081L358.308 493.029L356.006 478.87L355.635 476.593C355.585 476.321 355.536 476.048 355.486 475.801C354.57 471.469 351.922 467.706 348.184 465.305C348.11 465.256 348.011 465.206 347.936 465.157C346.946 464.538 345.956 463.919 345.016 463.3C343.407 462.26 341.822 461.246 340.288 460.206C331.822 454.513 324.742 448.893 318.876 443.621C315.658 440.75 312.811 437.977 310.261 435.353C304.766 429.66 300.806 424.709 298.132 420.922C297.191 419.61 296.474 418.199 295.954 416.714C295.632 415.798 295.409 414.832 295.261 413.867C295.186 413.446 295.162 413.05 295.112 412.629C295.063 412.085 295.063 411.565 295.063 411.02C295.087 409.189 295.434 407.357 296.078 405.599L298.701 398.52L318.628 344.483L331.797 308.788L333.406 304.456L334.099 302.599L334.99 300.174C336.476 296.139 336.302 291.807 334.743 288.069C333.975 286.237 332.886 284.554 331.5 283.069C330.609 282.128 329.594 281.287 328.48 280.544C328.48 280.544 328.356 280.445 328.134 280.272C327.168 279.48 324.173 277.078 320.237 273.885C319.742 273.489 319.247 273.093 318.752 272.672C317.861 271.954 316.945 271.212 315.979 270.444C314.123 268.935 312.167 267.35 310.187 265.741C308.826 264.627 307.439 263.513 306.053 262.4C305.113 261.632 304.172 260.865 303.231 260.122C294.988 253.439 287.835 247.597 287.463 247.201L271.869 232.349L269.022 229.651L266.175 226.952L261.794 222.794L247.684 209.377C239.144 200.515 242.04 204.253 230.976 192.644C230.827 192.495 230.678 192.347 230.53 192.173C225.233 186.604 227.931 175.564 230.53 172.494C233.03 169.549 238.129 166.677 249.046 170.167C249.689 170.366 250.358 170.613 251.051 170.861C256.62 172.89 261.472 176.628 266.175 180.316C266.621 180.663 267.042 180.985 267.462 181.331C267.957 181.703 268.453 182.124 268.997 182.544C269.863 183.213 270.829 183.955 271.844 184.747C283.156 193.436 303.009 208.214 325.237 222.843C347.144 237.275 371.329 251.508 391.849 259.553C412.84 267.796 429.97 269.504 436.852 258.241C437.124 257.795 437.396 257.35 437.668 256.929C438.634 255.345 439.599 253.86 440.515 252.449C441.48 250.939 442.446 249.528 443.362 248.216C460.293 223.809 467.2 228.933 471.606 233.562C472.076 234.057 472.497 234.576 472.868 235.096C472.918 235.195 472.992 235.27 473.041 235.344C473.091 235.418 473.165 235.517 473.215 235.616C475.343 238.933 475.913 243.092 474.824 246.978C474.205 249.132 472.893 255.221 471.63 261.979C471.259 263.934 470.913 265.964 470.566 267.969C470.541 268.043 470.541 268.118 470.516 268.192C470.046 270.964 469.601 273.712 469.254 276.187C469.056 277.549 468.908 278.811 468.784 279.999C467.818 288.812 467.224 299.951 467.67 313.491C467.67 313.615 467.67 313.739 467.67 313.862C467.695 314.481 467.719 315.125 467.744 315.744C467.992 321.883 468.462 328.517 469.18 335.621C469.229 336.116 469.279 336.611 469.328 337.106C472.2 366.959 468.511 388.915 464.551 402.703C463.189 407.431 461.803 411.194 460.64 413.991C458.907 418.149 458.957 422.828 460.764 426.962L460.986 427.457L466.16 439.289L473.215 455.428L497.151 510.134Z" fill="#EFBCA6"/>
<path d="M416.628 82.0195H292.86C279.691 82.0195 268.997 92.6883 268.997 105.882V390.029C268.997 403.198 279.666 413.892 292.86 413.892H416.628C429.797 413.892 440.49 403.223 440.49 390.029V105.857C440.49 92.6883 429.821 82.0195 416.628 82.0195Z" fill="#F5F5F5"/>
<path d="M416.628 79.1729H292.86C285.013 79.1729 277.958 82.5641 273.057 87.9851C268.774 92.7131 266.15 99.0005 266.15 105.882V390.029C266.15 404.758 278.131 416.714 292.835 416.714H416.603C431.331 416.714 443.287 404.733 443.287 390.029V105.857C443.337 91.1536 431.356 79.1729 416.628 79.1729ZM437.644 390.004C437.644 401.589 428.212 411.02 416.628 411.02H292.86C281.275 411.02 271.844 401.589 271.844 390.004V105.857C271.844 94.2726 281.275 84.8414 292.86 84.8414H416.628C428.212 84.8414 437.644 94.2726 437.644 105.857V390.004Z" fill="black"/>
<path d="M267.809 144.549C267.314 144.549 266.918 144.945 266.918 145.44V155.539C266.918 156.035 267.314 156.431 267.809 156.431C268.304 156.431 268.7 156.035 268.7 155.539V145.44C268.675 144.945 268.304 144.549 267.809 144.549Z" fill="#F1F1F1"/>
<path d="M267.809 159.227C265.779 159.227 264.121 157.569 264.121 155.539V145.439C264.121 143.409 265.779 141.751 267.809 141.751C269.839 141.751 271.497 143.409 271.497 145.439V155.539C271.497 157.569 269.839 159.227 267.809 159.227Z" fill="#1D1D1B"/>
<path d="M290.805 269.231C290.805 269.504 290.805 269.776 290.78 270.048C290.285 282.697 278.081 285.222 278.081 285.222C277.636 285.222 277.19 285.222 276.794 285.198C272.834 284.975 271.002 283.663 265.779 280.296L240.679 256.384C236.421 251.31 235.406 244.181 238.377 238.24C240.852 233.289 244.615 231.086 248.303 230.244C253.897 228.982 259.739 230.863 263.749 234.972L287.933 260.196C290.805 264.305 290.805 269.231 290.805 269.231Z" fill="#EFBCA6"/>
<path d="M293.132 330.448C293.157 331.388 293.082 332.304 292.86 333.22C290.731 342.404 285.557 343.245 279.319 343.468C278.725 343.493 278.156 343.493 277.636 343.443C273.7 343.196 271.052 341.438 266.621 338.121L242.709 310.818C238.228 305.273 237.857 297.352 242.115 291.634C243.377 289.926 244.887 288.639 246.471 287.649C253.056 283.564 261.67 285.099 266.695 290.99L288.355 319.259C290.954 322.329 293.033 326.438 293.132 330.448Z" fill="#EFBCA6"/>
<path d="M290.261 375.128C288.28 385.772 280.829 388.272 274.938 388.495C270.705 388.668 266.621 386.911 263.799 383.767L247.659 365.845C245.085 362.999 243.748 359.211 243.996 355.375C244.491 347.503 247.808 343.443 251.62 341.389C257.165 338.418 264.046 339.631 268.428 344.137L286.399 362.578C289.642 365.92 291.127 370.598 290.261 375.128Z" fill="#EFBCA6"/>
<path d="M475.195 246.856C474.403 249.653 472.422 259.084 470.888 268.069C467.694 266.337 463.635 260.024 467.992 245.841C469.947 239.504 471.408 237.424 473.413 235.246C475.69 238.613 476.334 242.895 475.195 246.856Z" fill="#CB9E8A"/>
<path d="M290.26 375.128C288.28 385.773 280.829 388.273 274.938 388.495C274.938 388.495 260.383 372.826 268.923 366.242C277.488 359.682 290.26 375.128 290.26 375.128Z" fill="#FEDED0"/>
<path d="M293.132 330.448C293.156 331.388 293.082 332.304 292.859 333.22C290.731 342.404 285.557 343.245 279.319 343.468C278.725 343.493 278.156 343.493 277.636 343.443L275.779 340.918C275.779 340.918 261.224 325.249 269.764 318.665C278.304 312.08 291.102 327.527 291.102 327.527L293.132 330.448Z" fill="#FEDED0"/>
<path d="M290.805 270.048C290.31 282.697 278.106 285.222 278.106 285.222C277.661 285.222 277.215 285.222 276.819 285.197L274.963 282.672C274.963 282.672 260.408 267.003 268.948 260.419C277.488 253.834 290.285 269.281 290.285 269.281L290.805 270.048Z" fill="#FEDED0"/>
<path d="M497.572 510.135H493.562C484.923 490.53 476.135 471.964 469.254 457.904C466.234 451.741 463.585 446.443 461.457 442.31C458.486 436.492 456.531 432.953 456.11 432.482C455.714 432.012 455.219 431.74 454.724 431.616C451.159 430.725 445.614 436.814 445.441 436.988L456.011 409.61V409.585L456.506 408.273C461.159 403.125 465.194 392.802 466.358 363.568C466.63 356.736 466.63 349.013 466.655 341.463C466.704 331.884 466.853 322.551 467.694 315.645C467.769 315.002 467.868 314.358 467.967 313.764C467.991 313.64 468.016 313.516 468.016 313.393C468.016 313.516 468.016 313.64 468.041 313.764C468.264 320.447 468.759 327.7 469.551 335.547C469.576 335.844 469.6 336.141 469.65 336.413C472.596 366.242 469.006 388.223 465.071 402.134C463.907 406.219 462.744 409.585 461.679 412.283C459.798 417.036 459.724 422.284 461.333 427.086C461.531 427.68 461.778 428.299 462.026 428.868L466.432 438.968L473.487 455.107L497.572 510.135Z" fill="#CB9E8A"/>
<path d="M362.492 492.782L366.279 510.135H361.501L358.704 493.005L356.402 478.871L356.031 476.593C355.981 476.321 355.932 476.049 355.882 475.776C354.942 471.469 352.318 467.682 348.605 465.306L372.863 471.048L361.848 475.455V475.479C360.734 478.772 360.437 482.262 360.957 485.703L362.492 492.782Z" fill="#CB9E8A"/>
<path d="M435.292 178.361C435.292 190.54 430.069 201.531 421.752 209.155C414.301 215.987 404.375 220.17 393.458 220.17C389.795 220.17 386.23 219.7 382.839 218.809C380.24 218.14 377.74 217.2 375.363 216.061C370.512 213.734 366.18 210.492 362.566 206.556C355.758 199.105 351.6 189.203 351.6 178.337C351.6 165.539 357.343 154.103 366.378 146.429C370.215 143.162 374.645 140.587 379.472 138.879C383.829 137.345 388.532 136.503 393.409 136.503C393.706 136.503 393.978 136.503 394.25 136.503C398.929 136.602 403.434 137.468 407.617 138.978C408.36 139.251 409.127 139.548 409.845 139.869C412.172 140.86 414.4 142.073 416.479 143.459C427.841 150.959 435.292 163.806 435.292 178.361Z" fill="#FD4C00"/>
<path d="M421.752 209.181C414.301 216.013 404.375 220.196 393.458 220.196C389.795 220.196 386.23 219.726 382.839 218.835C382.616 215.32 382.418 213.042 382.418 213.042C378.309 210.295 376.923 204.799 376.923 204.799C377.319 207.027 376.502 211.508 375.363 216.087C370.512 213.76 366.18 210.518 362.566 206.582C364.274 199.18 366.056 193.066 367.269 189.081C368.284 185.813 368.952 183.957 368.952 183.957L373.309 173.362L381.824 173.981L386.527 174.328L401.008 175.392L402.295 175.491L404.449 175.64C423.41 190.071 424.846 199.032 421.752 209.181Z" fill="#A0C6FF"/>
<path d="M399.424 186.159C399.424 186.159 383.507 186.431 382.146 176.01C380.784 165.588 375.561 150.761 375.561 150.761L381.057 134.3L400.81 128.532L415.068 146.38L404.647 170.242L400.81 172.445C400.81 172.42 406.85 181.208 399.424 186.159Z" fill="#FFC69F"/>
<path d="M398.805 132.048C398.805 132.048 395.587 137.147 381.626 144.945C381.626 144.945 373.829 149.252 381.626 158.906C388.607 167.57 387.27 172.372 386.923 173.288C386.849 173.51 386.775 173.709 386.701 173.931C383.903 182.719 379.052 189.576 382.987 194.353C389.869 202.695 394.745 200.071 394.745 200.071C394.745 200.071 381.576 205.269 372.789 196.779C364.769 189.031 363.284 178.907 368.804 167.124C369.422 165.787 369.546 164.277 369.125 162.842C367.516 157.173 364.026 142.148 368.729 132.073C374.645 119.449 384.299 114.894 396.651 118.656C409.004 122.419 416.553 137.816 416.529 143.088C416.504 148.212 419.054 159.698 408.038 171.233L404.498 175.664L401.107 175.441C401.107 175.441 397.691 173.733 397.543 169.748C397.543 169.748 410.563 161.158 411.157 152.148C411.751 143.088 405.711 133.41 398.805 132.048Z" fill="#1B1F31"/>
<path d="M362.665 309.36C362.665 314.088 361.749 318.593 360.09 322.727C359.991 322.949 359.892 323.197 359.818 323.42C359.67 323.742 359.546 324.063 359.397 324.385C359.372 324.459 359.348 324.509 359.298 324.583C358.976 325.251 358.655 325.895 358.308 326.563C358.209 326.761 358.11 326.935 357.986 327.133C354.447 333.346 349.124 338.42 342.713 341.614C337.862 344.039 332.391 345.401 326.599 345.401C320.336 345.401 314.445 343.817 309.321 340.995C306.226 339.312 303.405 337.183 300.954 334.683C299.766 333.47 298.652 332.183 297.637 330.821C296.894 329.831 296.226 328.816 295.582 327.752C295.384 327.405 295.186 327.083 295.013 326.737C292.166 321.588 290.557 315.672 290.557 309.36C290.557 301.29 293.206 293.839 297.711 287.824C298.058 287.378 298.404 286.933 298.751 286.487C301.3 283.393 304.37 280.72 307.786 278.616C309.024 277.848 310.311 277.18 311.647 276.561C316.202 274.482 321.277 273.318 326.599 273.318C331.5 273.318 336.178 274.284 340.436 276.066C341.896 276.685 343.307 277.378 344.669 278.17C348.06 280.15 351.105 282.65 353.704 285.571C354.174 286.116 354.645 286.685 355.09 287.255C359.843 293.344 362.665 301.018 362.665 309.36Z" fill="#213FE3"/>
<path d="M346.922 313.542C348.258 315.077 349.595 316.587 350.932 318.122C353.06 320.548 355.189 322.974 357.318 325.375C357.813 325.919 358.283 326.489 358.779 327.033C359.249 327.578 360.115 327.603 360.709 327.281C362.541 326.266 364.373 325.251 366.205 324.236C369.101 322.627 371.997 321.018 374.893 319.409C375.561 319.038 376.23 318.666 376.898 318.295C377.641 317.899 377.938 316.81 377.468 316.117C376.997 315.374 376.057 315.102 375.264 315.548C373.433 316.562 371.601 317.577 369.769 318.592C366.873 320.201 363.977 321.81 361.081 323.419C360.412 323.79 359.744 324.162 359.076 324.533C359.719 324.607 360.363 324.706 361.006 324.781C359.67 323.246 358.333 321.736 356.996 320.201C354.867 317.775 352.739 315.349 350.61 312.948C350.115 312.404 349.644 311.834 349.149 311.29C348.605 310.646 347.441 310.671 346.897 311.29C346.303 311.958 346.327 312.874 346.922 313.542Z" fill="#262C46"/>
<path d="M303.825 311.587C302.86 313.517 301.87 315.423 300.904 317.354C299.419 320.275 297.934 323.196 296.449 326.117C296.077 326.86 295.261 327.998 295.508 328.865C295.681 329.459 295.929 330.053 296.152 330.647C297.241 333.741 298.355 336.811 299.444 339.905C300.261 342.232 301.078 344.534 301.919 346.861C301.944 346.91 301.944 346.935 301.969 346.984C302.241 347.776 303.083 348.371 303.949 348.098C304.716 347.851 305.36 346.984 305.063 346.118C304.345 344.088 303.603 342.034 302.885 340.004C301.721 336.761 300.558 333.494 299.419 330.251C299.147 329.508 298.899 328.766 298.627 328.023C298.578 328.444 298.528 328.84 298.454 329.261C299.37 327.454 300.286 325.647 301.226 323.84C302.687 320.968 304.147 318.097 305.608 315.225C305.954 314.557 306.276 313.913 306.622 313.245C306.994 312.502 306.845 311.488 306.053 311.067C305.286 310.621 304.221 310.794 303.825 311.587Z" fill="#262C46"/>
<path d="M323.455 258.862H329.025C333.505 258.862 337.144 262.501 337.144 266.981V268.12C337.144 270.769 335.015 272.898 332.366 272.898H320.138C317.489 272.898 315.361 270.769 315.361 268.12V266.981C315.361 262.476 318.975 258.862 323.455 258.862Z" fill="#87A2C6"/>
<path d="M355.536 283.367L354.323 277.971C353.605 274.753 350.412 272.748 347.219 273.466C345.337 273.887 344.124 275.768 344.545 277.649L346.823 287.823C347.243 289.704 349.125 290.917 351.006 290.472C354.249 289.754 356.254 286.585 355.536 283.367Z" fill="#87A2C6"/>
<path d="M296.969 283.318L298.231 277.946C298.974 274.753 302.192 272.748 305.385 273.515C307.266 273.961 308.454 275.842 308.009 277.723L305.632 287.872C305.187 289.754 303.306 290.942 301.424 290.496C298.206 289.729 296.226 286.511 296.969 283.318Z" fill="#87A2C6"/>
<path d="M327.762 261.263H324.742C310.385 261.263 298.751 272.897 298.751 287.254C298.751 295.72 305.608 302.577 314.073 302.577H338.456C346.922 302.577 353.778 295.72 353.778 287.254C353.754 272.922 342.119 261.263 327.762 261.263Z" fill="#C4D3E7"/>
<path d="M349.817 263.541H348.035V280.324H349.817V263.541Z" fill="#C4D3E7"/>
<path d="M348.926 265.026C350.293 265.026 351.402 263.918 351.402 262.551C351.402 261.183 350.293 260.075 348.926 260.075C347.559 260.075 346.451 261.183 346.451 262.551C346.451 263.918 347.559 265.026 348.926 265.026Z" fill="#87A2C6"/>
<path d="M302.675 280.316H304.457V263.533H302.675V280.316Z" fill="#C4D3E7"/>
<path d="M303.578 265.026C304.945 265.026 306.053 263.918 306.053 262.551C306.053 261.183 304.945 260.075 303.578 260.075C302.211 260.075 301.102 261.183 301.102 262.551C301.102 263.918 302.211 265.026 303.578 265.026Z" fill="#87A2C6"/>
<path d="M333.059 272.649H319.42C314.073 272.649 309.717 276.981 309.717 282.353C309.717 285.497 312.266 288.071 315.435 288.071H337.02C340.164 288.071 342.738 285.521 342.738 282.353C342.763 276.981 338.431 272.649 333.059 272.649Z" fill="#262C46"/>
<path d="M324.247 279.978C322.193 276.364 316.92 276.364 314.866 279.978C314.618 280.424 314.445 280.869 314.445 281.241C314.445 281.265 314.445 281.315 314.445 281.34C314.494 282.701 315.806 283.642 317.118 283.295L318.183 283.023C319.074 282.775 320.039 282.775 320.93 283.023L321.995 283.295C323.307 283.642 324.619 282.676 324.668 281.34C324.668 281.315 324.668 281.265 324.668 281.241C324.668 280.869 324.495 280.448 324.247 279.978Z" fill="#08F3FD"/>
<path d="M337.639 279.978C335.584 276.364 330.312 276.364 328.257 279.978C328.01 280.424 327.836 280.869 327.836 281.241C327.836 281.265 327.836 281.315 327.836 281.34C327.886 282.701 329.198 283.642 330.51 283.295L331.574 283.023C332.465 282.775 333.431 282.775 334.322 283.023L335.386 283.295C336.698 283.642 338.01 282.676 338.06 281.34C338.06 281.315 338.06 281.265 338.06 281.241C338.06 280.869 337.886 280.448 337.639 279.978Z" fill="#08F3FD"/>
<path d="M323.628 292.701C324.792 294.211 327.762 294.211 328.925 292.701C329.074 292.503 329.173 292.329 329.173 292.181C329.173 292.156 329.173 292.156 329.173 292.131C329.148 291.562 328.406 291.166 327.663 291.315C326.797 291.735 325.782 291.735 324.915 291.315C324.173 291.166 323.43 291.562 323.405 292.131C323.405 292.156 323.405 292.156 323.405 292.181C323.381 292.329 323.48 292.503 323.628 292.701Z" fill="#262C46"/>
<path d="M344.619 318.024C347.722 318.024 350.238 315.509 350.238 312.405C350.238 309.302 347.722 306.786 344.619 306.786C341.516 306.786 339 309.302 339 312.405C339 315.509 341.516 318.024 344.619 318.024Z" fill="#87A2C6"/>
<path d="M360.12 328.124C361.61 328.122 362.816 326.912 362.814 325.422C362.811 323.931 361.601 322.725 360.111 322.728C358.621 322.73 357.415 323.94 357.417 325.431C357.42 326.921 358.63 328.127 360.12 328.124Z" fill="#87A2C6"/>
<path d="M300.03 328.133C300.033 326.643 298.827 325.433 297.337 325.43C295.847 325.428 294.637 326.634 294.634 328.124C294.632 329.614 295.838 330.824 297.328 330.827C298.818 330.829 300.028 329.623 300.03 328.133Z" fill="#87A2C6"/>
<path d="M377.695 318.371C379.185 318.369 380.391 317.159 380.389 315.669C380.386 314.179 379.176 312.973 377.686 312.975C376.196 312.977 374.99 314.187 374.992 315.678C374.995 317.168 376.205 318.374 377.695 318.371Z" fill="#87A2C6"/>
<path d="M307.91 318.024C311.013 318.024 313.529 315.509 313.529 312.405C313.529 309.302 311.013 306.786 307.91 306.786C304.806 306.786 302.291 309.302 302.291 312.405C302.291 315.509 304.806 318.024 307.91 318.024Z" fill="#87A2C6"/>
<path d="M346.525 315.079V329.783C346.525 334.189 345.114 338.273 342.713 341.615C337.862 344.041 332.391 345.402 326.599 345.402C320.336 345.402 314.445 343.818 309.321 340.996C307.192 337.778 305.954 333.917 305.954 329.783V315.079C305.954 314.832 305.954 314.609 305.979 314.386C306.053 313.396 306.251 312.455 306.548 311.564C307.167 309.807 308.231 308.272 309.593 307.084C310.236 306.515 310.979 306.019 311.746 305.623C313.207 304.881 314.841 304.46 316.573 304.46H335.881C337.614 304.46 339.248 304.881 340.708 305.623C341.5 306.019 342.218 306.515 342.862 307.084C345.114 309.015 346.525 311.886 346.525 315.079Z" fill="#C4D3E7"/>
<path d="M340.733 305.598C333.827 310.4 318.678 310.4 311.771 305.598C313.232 304.855 314.865 304.435 316.598 304.435H335.906C337.639 304.435 339.273 304.855 340.733 305.598Z" fill="#87A2C6"/>
<path d="M379.151 313.418C379.695 312.577 380.265 311.735 380.809 310.869C381.304 310.126 380.091 309.433 379.621 310.176C379.077 311.017 378.507 311.859 377.963 312.725C377.492 313.468 378.68 314.161 379.151 313.418Z" fill="#262C46"/>
<path d="M380.289 314.978C381.23 314.434 382.195 313.864 383.136 313.32C383.903 312.874 383.21 311.686 382.443 312.131C381.502 312.676 380.537 313.245 379.596 313.79C378.804 314.236 379.522 315.424 380.289 314.978Z" fill="#262C46"/>
<path d="M380.388 316.909C381.131 316.81 381.874 316.711 382.592 316.587C382.963 316.538 383.161 316.067 383.062 315.746C382.963 315.35 382.592 315.201 382.22 315.275C381.478 315.374 380.735 315.473 380.017 315.597C379.646 315.647 379.448 316.117 379.547 316.439C379.671 316.835 380.017 316.959 380.388 316.909Z" fill="#262C46"/>
<path d="M376.849 313.295C376.75 312.849 376.651 312.404 376.527 311.983C376.453 311.612 376.032 311.414 375.685 311.513C375.314 311.612 375.116 312.008 375.215 312.354C375.314 312.8 375.413 313.245 375.537 313.666C375.611 314.038 376.032 314.236 376.378 314.137C376.75 314.038 376.948 313.666 376.849 313.295Z" fill="#262C46"/>
<path d="M303.157 349.337C304.593 349.709 306.078 348.842 306.449 347.406C306.82 345.971 305.954 344.486 304.518 344.114C303.083 343.743 301.597 344.609 301.226 346.045C300.83 347.481 301.721 348.966 303.157 349.337Z" fill="#87A2C6"/>
<path d="M305.657 348.694C306.35 349.437 307.018 350.179 307.711 350.922C308.305 351.59 309.296 350.6 308.677 349.957C307.984 349.214 307.315 348.471 306.622 347.729C306.053 347.085 305.063 348.051 305.657 348.694Z" fill="#262C46"/>
<path d="M303.875 349.387C304.172 350.451 304.469 351.516 304.766 352.555C305.014 353.397 306.326 353.05 306.103 352.184C305.806 351.119 305.509 350.055 305.212 349.015C304.964 348.174 303.627 348.545 303.875 349.387Z" fill="#262C46"/>
<path d="M301.969 349.015C301.895 349.758 301.796 350.501 301.721 351.243C301.672 351.614 302.068 351.936 302.414 351.936C302.81 351.936 303.058 351.614 303.107 351.243C303.182 350.501 303.281 349.758 303.355 349.015C303.404 348.644 303.008 348.322 302.662 348.322C302.241 348.322 302.018 348.644 301.969 349.015Z" fill="#262C46"/>
<path d="M306.35 346.516C306.796 346.516 307.266 346.541 307.712 346.541C308.603 346.566 308.603 345.18 307.712 345.155C307.266 345.155 306.796 345.13 306.35 345.13C305.459 345.105 305.459 346.492 306.35 346.516Z" fill="#262C46"/>
<path d="M187.805 86.1793L299.964 85.7833C325.807 85.7338 346.822 106.626 346.872 132.469L346.897 144.548C346.946 164.054 335.065 180.788 318.108 187.867C320.831 194.105 325.138 201.259 331.129 203.239C331.129 203.239 307.365 198.487 294.592 191.481L188.053 191.877C162.21 191.927 141.194 171.035 141.144 145.192L141.12 133.112C141.07 107.245 161.962 86.2289 187.805 86.1793Z" fill="#FD4C00"/>
<path d="M212.781 152.197C219.07 152.197 224.168 147.099 224.168 140.811C224.168 134.522 219.07 129.424 212.781 129.424C206.493 129.424 201.395 134.522 201.395 140.811C201.395 147.099 206.493 152.197 212.781 152.197Z" fill="white"/>
<path d="M243.971 152.197C250.26 152.197 255.358 147.099 255.358 140.811C255.358 134.522 250.26 129.424 243.971 129.424C237.682 129.424 232.584 134.522 232.584 140.811C232.584 147.099 237.682 152.197 243.971 152.197Z" fill="white"/>
<path d="M275.161 152.197C281.449 152.197 286.547 147.099 286.547 140.811C286.547 134.522 281.449 129.424 275.161 129.424C268.872 129.424 263.774 134.522 263.774 140.811C263.774 147.099 268.872 152.197 275.161 152.197Z" fill="white"/>
<path d="M500.122 222.646H432.024C409.746 222.646 391.676 240.717 391.676 262.995V273.416C391.676 290.224 401.949 304.631 416.578 310.695C414.251 316.067 410.538 322.255 405.39 323.963C405.39 323.963 425.861 319.805 436.851 313.74H500.097C522.375 313.74 540.445 295.67 540.445 273.391V262.97C540.445 240.717 522.4 222.646 500.122 222.646Z" fill="#536DFB"/>
<path d="M443.411 276.633C448.018 276.633 451.753 272.898 451.753 268.291C451.753 263.684 448.018 259.949 443.411 259.949C438.804 259.949 435.069 263.684 435.069 268.291C435.069 272.898 438.804 276.633 443.411 276.633Z" fill="white"/>
<path d="M466.259 276.633C470.866 276.633 474.601 272.898 474.601 268.291C474.601 263.684 470.866 259.949 466.259 259.949C461.652 259.949 457.917 263.684 457.917 268.291C457.917 272.898 461.652 276.633 466.259 276.633Z" fill="white"/>
<path d="M489.106 276.633C493.714 276.633 497.448 272.898 497.448 268.291C497.448 263.684 493.714 259.949 489.106 259.949C484.499 259.949 480.764 263.684 480.764 268.291C480.764 272.898 484.499 276.633 489.106 276.633Z" fill="white"/>
</g>
<defs>
<clipPath id="clip0_922_543">
<rect width="696" height="510" fill="white"/>
</clipPath>
</defs>
</svg>
